<svg width="24" height="25" viewBox="0 0 24 25" fill="none" xmlns="http://www.w3.org/2000/svg">
<path d="M17 2.01611H7C4.23858 2.01611 2 4.25469 2 7.01611V17.0161C2 19.7775 4.23858 22.0161 7 22.0161H17C19.7614 22.0161 22 19.7775 22 17.0161V7.01611C22 4.25469 19.7614 2.01611 17 2.01611Z" stroke="#02897A" stroke-width="2" stroke-linecap="round" stroke-linejoin="round"/>
<path d="M16 11.3862C16.1234 12.2184 15.9813 13.0684 15.5938 13.8152C15.2063 14.562 14.5932 15.1676 13.8416 15.5458C13.0901 15.9241 12.2385 16.0558 11.4078 15.9221C10.5771 15.7884 9.80977 15.3963 9.21485 14.8013C8.61993 14.2064 8.22774 13.439 8.09408 12.6084C7.96042 11.7777 8.09208 10.9261 8.47034 10.1745C8.8486 9.42302 9.4542 8.80991 10.201 8.42241C10.9478 8.03491 11.7978 7.89276 12.63 8.01617C13.4789 8.14206 14.2649 8.53763 14.8717 9.14448C15.4785 9.75132 15.8741 10.5372 16 11.3862Z" stroke="#02897A" stroke-width="2" stroke-linecap="round" stroke-linejoin="round"/>
<path d="M17.5 6.51611H17.51" stroke="#02897A" stroke-width="2" stroke-linecap="round" stroke-linejoin="round"/>
</svg>
