<svg width="163" height="30" viewBox="0 0 163 30" fill="none" xmlns="http://www.w3.org/2000/svg">
<path fill-rule="evenodd" clip-rule="evenodd" d="M106.11 9.8752C105.226 9.3184 104.168 9.04 102.938 9.04C101.611 9.04 100.424 9.3712 99.3762 10.0336C98.3284 10.696 97.5016 11.6464 96.896 12.8848C96.2904 14.1232 95.9876 15.5872 95.9876 17.2768C95.9876 18.9472 96.2904 20.4064 96.896 21.6544C97.5016 22.9024 98.3284 23.8576 99.3762 24.52C100.424 25.1824 101.611 25.5136 102.938 25.5136C104.168 25.5136 105.226 25.2352 106.11 24.6784C106.994 24.1216 107.638 23.3632 108.042 22.4032V25.312H112.974V4H108.042V12.1504C107.638 11.1904 106.994 10.432 106.11 9.8752ZM52.9314 25.312V18.1696H55.9883C57.5841 18.1696 58.9395 17.8864 60.0546 17.32C61.1697 16.7536 62.0108 15.976 62.578 14.9872C63.1451 13.9984 63.4287 12.8704 63.4287 11.6032C63.4287 9.56799 62.7943 7.95041 61.5254 6.7504C60.2564 5.55039 58.4108 4.9504 55.9883 4.9504H48V25.312H52.9314ZM58.4108 11.6032C58.4108 13.3504 57.4207 14.224 55.4404 14.224H52.9314V8.9248H55.4404C57.4207 8.9248 58.4108 9.81759 58.4108 11.6032ZM70.7826 12.2656C71.3978 11.2864 72.1909 10.5088 73.1618 9.9328C74.1327 9.3568 75.1853 9.0688 76.3196 9.0688V14.3392H74.9065C73.5992 14.3392 72.585 14.6176 71.864 15.1744C71.1431 15.7312 70.7826 16.672 70.7826 17.9968V25.312H65.8512V9.2416H70.7826V12.2656ZM90.2055 10.0336C88.9462 9.3712 87.5187 9.04 85.9229 9.04C84.3272 9.04 82.8948 9.3712 81.6259 10.0336C80.357 10.696 79.3621 11.6512 78.6411 12.8992C77.9202 14.1472 77.5597 15.6064 77.5597 17.2768C77.5597 18.9472 77.9202 20.4064 78.6411 21.6544C79.3621 22.9024 80.357 23.8576 81.6259 24.52C82.8948 25.1824 84.3272 25.5136 85.9229 25.5136C87.5187 25.5136 88.9462 25.1824 90.2055 24.52C91.4647 23.8576 92.4549 22.9024 93.1758 21.6544C93.8968 20.4064 94.2573 18.9472 94.2573 17.2768C94.2573 15.6064 93.8968 14.1472 93.1758 12.8992C92.4549 11.6512 91.4647 10.696 90.2055 10.0336ZM85.9229 13.3024C84.9808 13.3024 84.1878 13.6432 83.5437 14.3248C82.8996 15.0064 82.5776 15.9904 82.5776 17.2768C82.5776 18.5632 82.8996 19.5424 83.5437 20.2144C84.1878 20.8864 84.9808 21.2224 85.9229 21.2224C86.865 21.2224 87.6532 20.8864 88.2877 20.2144C88.9221 19.5424 89.2394 18.5632 89.2394 17.2768C89.2394 15.9904 88.9221 15.0064 88.2877 14.3248C87.6532 13.6432 86.865 13.3024 85.9229 13.3024ZM104.524 13.36C103.466 13.36 102.616 13.7056 101.972 14.3968C101.328 15.088 101.006 16.048 101.006 17.2768C101.006 18.5056 101.328 19.4656 101.972 20.1568C102.616 20.848 103.466 21.1936 104.524 21.1936C105.562 21.1936 106.413 20.8384 107.076 20.128C107.739 19.4176 108.071 18.4672 108.071 17.2768C108.071 16.0672 107.739 15.112 107.076 14.4112C106.413 13.7104 105.562 13.36 104.524 13.36ZM127.422 25.312H132.382V9.2416H127.422V17.7664C127.422 18.9376 127.133 19.84 126.557 20.4736C125.98 21.1072 125.192 21.424 124.192 21.424C123.231 21.424 122.466 21.1216 121.899 20.5168C121.332 19.912 121.048 19.0624 121.048 17.968V9.2416H116.146V18.5728C116.146 20.7232 116.689 22.4128 117.775 23.6416C118.862 24.8704 120.327 25.4848 122.173 25.4848C123.384 25.4848 124.447 25.2064 125.36 24.6496C126.273 24.0928 126.96 23.344 127.422 22.4032V25.312ZM143.052 9.04C145.129 9.04 146.869 9.61119 148.272 10.7536C149.676 11.896 150.56 13.4656 150.925 15.4624H145.706C145.552 14.7712 145.235 14.2336 144.754 13.8496C144.273 13.4656 143.668 13.2736 142.937 13.2736C142.072 13.2736 141.361 13.6144 140.803 14.296C140.245 14.9776 139.967 15.9712 139.967 17.2768C139.967 18.5824 140.245 19.576 140.803 20.2576C141.361 20.9392 142.072 21.28 142.937 21.28C143.668 21.28 144.273 21.088 144.754 20.704C145.235 20.32 145.552 19.7824 145.706 19.0912H150.925C150.56 21.088 149.676 22.6576 148.272 23.8C146.869 24.9424 145.129 25.5136 143.052 25.5136C141.476 25.5136 140.077 25.1824 138.856 24.52C137.636 23.8576 136.679 22.9024 135.987 21.6544C135.295 20.4064 134.949 18.9472 134.949 17.2768C134.949 15.5872 135.29 14.1232 135.972 12.8848C136.655 11.6464 137.611 10.696 138.842 10.0336C140.072 9.3712 141.476 9.04 143.052 9.04ZM162.605 25.312V21.0784H161.048C160.433 21.0784 159.995 20.9536 159.736 20.704C159.476 20.4544 159.346 20.0128 159.346 19.3792V13.3888H162.576V9.2416H159.346V5.296H154.415V9.2416H152.252V13.3888H154.415V19.2928C154.415 21.4432 154.939 22.984 155.987 23.9152C157.034 24.8464 158.5 25.312 160.384 25.312H162.605Z" fill="#173A56"/>
<path fill-rule="evenodd" clip-rule="evenodd" d="M2.50646 27.567C1.12791 27.567 1.28656e-07 26.4391 1.19284e-07 25.0606L5.97072e-08 16.2976L6.30899 16.2976L6.30899 16.288L10.101 16.288C11.0785 16.2629 11.9057 15.4107 11.9057 14.4081C11.9057 13.3805 11.0535 12.5283 10.0258 12.5283L5.01292 12.5283L5.01292 12.5298L3.40912e-08 12.5298L1.70405e-08 10.0218C7.66823e-09 8.64329 1.12791 7.51538 2.50646 7.51538L10.0258 7.51538C11.9307 7.51538 13.5599 8.19212 14.8884 9.54561C16.2418 10.874 16.9186 12.5032 16.9186 14.4081C16.9186 16.288 16.2669 17.9172 14.9385 19.2456C13.6101 20.574 12.0059 21.2758 10.1261 21.3009L5.01292 21.3009L5.01292 25.0606C5.01292 26.4391 3.88501 27.567 2.50646 27.567Z" fill="#02BC6B"/>
<path fill-rule="evenodd" clip-rule="evenodd" d="M20.0779 4.6062C22.8471 7.29591 24.2425 10.6458 24.2425 14.4538C24.2425 18.1978 22.9055 21.5445 20.1791 24.2427L16.3081 20.6006C18.0037 18.9226 18.836 16.9024 18.836 14.4538C18.836 11.9865 17.9787 9.96945 16.2424 8.28303L20.0779 4.6062Z" fill="#02897A"/>
<path fill-rule="evenodd" clip-rule="evenodd" d="M26.0045 -2.51649e-08C29.993 3.98225 32.0001 8.91996 32.0001 14.587C32.0001 20.1656 30.0739 25.1003 26.1509 29.091L22.415 25.4408C25.3373 22.468 26.7692 18.8625 26.7692 14.587C26.7692 10.2687 25.289 6.66621 22.303 3.68493L26.0045 -2.51649e-08Z" fill="#035B81"/>
<path fill-rule="evenodd" clip-rule="evenodd" d="M0 21.3218L5.01292 21.3218L5.01292 25.0606C5.01292 26.4392 3.88501 27.5671 2.50646 27.5671C1.12791 27.5671 3.47914e-08 26.4392 2.54191e-08 25.0606L0 21.3218Z" fill="#028E37"/>
</svg>
