<svg width="540" height="475" fill="none" xmlns="http://www.w3.org/2000/svg"><path d="M79 428.9c105.5 60.6 276.4 60.6 381.8 0 105.4-60.6 105.4-158.9 0-219.5-105.4-60.6-276.3-60.6-381.7 0C-26.4 270-26.3 368.3 79 429Z" fill="#F5F5F5"/><path d="m49.7 329.5-34.3-21.8V227l34.3 21.7v80.9Z" fill="#E0E0E0"/><path d="m49.7 248.6 49-31v80.8l-49 31v-80.8Z" fill="#EBEBEB"/><path d="m98.6 217.5-49 31.1L15.5 227l49-31.1 34.2 21.7Z" fill="#F5F5F5"/><path d="M54.6 251.7 93.7 227l1 .5v30l-39.2 24.9-1-.6v-30Z" fill="#E0E0E0"/><path d="m55.5 252.3 39.1-24.9v30l-39.1 24.9v-30Z" fill="#F5F5F5"/><path d="m70.8 247.6 6.7-4.2c.8-.6 1.5-.3 1.5.6 0 .5-.2 1-.5 1.4-.2.5-.6.8-1 1.1l-6.7 4.2c-.8.6-1.5.3-1.5-.5 0-.5.2-1 .5-1.5.2-.4.6-.8 1-1ZM53.7 289.6l39.1-24.8v30l1 .5-39.2 24.9-1-.6v-30Z" fill="#E0E0E0"/><path d="m54.6 290.2 39.1-24.9v30l-39.1 24.9v-30Z" fill="#F5F5F5"/><path d="m70 285.5 6.6-4.2c1-.5 1.6-.3 1.6.6 0 .5-.2 1-.5 1.5-.3.4-.6.8-1 1l-6.7 4.3c-.9.5-1.6.3-1.6-.6 0-.5.2-1 .5-1.5.3-.4.6-.8 1-1ZM49.7 244l-34.3-21.8v-80.9l34.3 21.8V244Z" fill="#E0E0E0"/><path d="m49.7 163 49-31v80.9l-49 31v-80.8Z" fill="#EBEBEB"/><path d="m98.6 132-49 31-34.2-21.7 49-31L98.6 132Z" fill="#F5F5F5"/><path d="m54.6 166.2 39.1-24.9 1 .6v30l-39.2 24.8-1-.5v-30Z" fill="#E0E0E0"/><path d="m70.8 162 6.7-4.1c.8-.6 1.5-.3 1.5.5 0 .6-.2 1-.5 1.5-.2.5-.6.8-1 1l-6.7 4.3c-.8.6-1.5.3-1.5-.5 0-.6.2-1 .5-1.5.2-.5.6-.8 1-1.1ZM53.7 204.1l39.1-24.9v30l1 .5-39.2 25-1-.6v-30Z" fill="#E0E0E0"/><path d="m54.6 204.7 39.1-24.9v30l-39.1 24.8v-30Z" fill="#F5F5F5"/><path d="m70 200 6.6-4.2c.9-.6 1.6-.3 1.6.5 0 .6-.2 1-.5 1.5-.3.4-.6.8-1 1l-6.8 4.3c-.8.5-1.5.3-1.5-.6 0-.5.2-1 .5-1.4.2-.5.6-.8 1-1.1ZM54.6 166.2l39.1-24.9v30l-39.1 24.9v-30Z" fill="#E0E0E0"/><path d="M113.3 156.1 92 142.5V169l21.4 13.6v-26.4Z" fill="#E0E0E0"/><path d="M69.3 200.4v-37.3l8.4-5.4L79 160l24.5-15.6v34.2l-34.2 21.8Z" fill="#EBEBEB"/><path d="m69.3 200.4 2.4-32.6L106 146l-2.5 32.6-34.2 21.8Z" fill="#F5F5F5"/><path d="m74.1 181-18.6-11.9v26.4L74 207.4V181Z" fill="#EBEBEB"/><path d="m74.1 178.6 39.2-24.8v30l-39.2 24.8v-30Z" fill="#F5F5F5"/><path d="m89.5 174 6.7-4.3c.8-.5 1.5-.3 1.5.6 0 .5-.2 1-.5 1.5-.3.4-.6.8-1 1l-6.7 4.3c-.9.5-1.6.3-1.6-.6l.5-1.5c.3-.4.7-.8 1.1-1ZM74.1 178.6l-1.3-.8v30l1.3.8v-30Z" fill="#E0E0E0"/><path d="M72.8 177.8 112 153l1.3.9-39.2 24.8-1.3-.8Z" fill="#EBEBEB"/><path d="m454.5 280.5-34.3-21.8V178l34.3 21.7v80.9Z" fill="#E0E0E0"/><path d="m454.5 199.6 49-31v80.8l-49 31.1v-80.9Z" fill="#EBEBEB"/><path d="m503.4 168.5-49 31.1-34.2-21.7 49-31.2 34.2 21.8Z" fill="#F5F5F5"/><path d="m459.4 202.7 39.1-24.8 1 .5v30l-39.2 24.9-1-.6v-30Z" fill="#E0E0E0"/><path d="m460.3 203.3 39.1-24.9v30l-39.1 24.9v-30Z" fill="#F5F5F5"/><path d="m475.6 198.6 6.7-4.2c.8-.5 1.5-.3 1.5.6 0 .5-.2 1-.5 1.4-.2.5-.6.9-1 1.1l-6.7 4.2c-.8.6-1.5.3-1.5-.5 0-.5.2-1 .5-1.5.2-.4.6-.8 1-1ZM458.5 240.6l39.1-24.8v30l1 .5-39.2 24.9-1-.6v-30Z" fill="#E0E0E0"/><path d="m459.4 241.2 39.1-24.9v30l-39.1 24.9v-30Z" fill="#F5F5F5"/><path d="m474.7 236.5 6.7-4.2c.8-.5 1.5-.3 1.5.6 0 .5-.2 1-.5 1.4-.2.5-.6.9-1 1.1l-6.7 4.2c-.8.6-1.5.3-1.5-.5 0-.5.2-1 .5-1.5.2-.4.6-.8 1-1Z" fill="#E0E0E0"/><path d="M128.5 365s.1-21-12-36.8c-10.6-14-16.3-22.8-13-26.9 3.4-4 10.7-5 20.4 6.2 9.8 11.3 10.5 42.6 9.2 49.7l-4.6 7.8Z" fill="#02897A"/><path opacity=".2" d="M128.5 365s.1-21-12-36.8c-10.6-14-16.3-22.8-13-26.9 3.4-4 10.7-5 20.4 6.2 9.8 11.3 10.5 42.6 9.2 49.7l-4.6 7.8Z" fill="#000"/><path d="m130.5 342.4-.4-.1a67.2 67.2 0 0 0-21.6-39.7c0-.3 0-.4.2-.6l.4-.2.4.1a68.5 68.5 0 0 1 21.5 40.2l-.2.2h-.2l-.1.1Z" fill="#fff"/><path d="m128 372.8-4.9 3.1c-.5-1.5-1.4-3-2.6-4a8.6 8.6 0 0 0-4-2.2c-5.4-1.3-11-1-14.7-6.2-3.8-5.1.8-10.7 0-14.5-.8-3.7-1.3-4.8-8-8.6-6.8-3.7-9.4-10-4.4-14.2 5-4.2 13.3-1.1 18.2 2.6 4.5 3.4 8.6 4.2 13.6 4.9 5 .7 13 3.7 11.7 16.3-.8 7.8-2.4 15.5-4.9 22.8Z" fill="#02897A"/><path d="M109.2 356.3c-.1 0-.3 0-.4-.2a.7.7 0 0 1-.2-.3v-.5c.1-.2.3-.3.4-.3.4-.2 10.8-3.8 15.3.1l.2.4c0 .2 0 .4-.2.5l-.3.2h-.5c-3.9-3.5-14 0-14.1 0h-.2Z" fill="#fff"/><path d="m128.6 371.8-.4-.1a.7.7 0 0 1-.2-.5c-2.7-27.9-33.3-41.1-33.6-41.3l-.2-.1-.1-.2a.7.7 0 0 1 0-.5c0-.2.1-.3.3-.4h.4c.3.1 31.6 13.6 34.4 42.4 0 .2 0 .4-.2.5l-.4.2Z" fill="#fff"/><path d="M428.3 354.5c.2-.5 5.3-29.8 0-50.5-4.8-19-11-26.1-20-27.7-9-1.5-13 5.6-8.2 15.2 4.8 9.7 16.3 22.4 19 44 1.3 8.8 2.2 16.5 2.2 16.5l7 2.5Z" fill="#02897A"/><path opacity=".2" d="M428.3 354.5c.2-.5 5.3-29.8 0-50.5-4.8-19-11-26.1-20-27.7-9-1.5-13 5.6-8.2 15.2 4.8 9.7 16.3 22.4 19 44 1.3 8.8 2.2 16.5 2.2 16.5l7 2.5Z" fill="#000"/><path d="m425.3 337.7-.2-.1c-.1 0-.2 0-.2-.2l-.1-.2v-.2c1.1-23.7-6-45-18.5-55.3a.7.7 0 0 1-.3-.4c0-.2 0-.4.2-.5 0-.2.2-.3.4-.3l.4.1c13 10.7 20.2 32.3 19 56.4 0 .2-.2.4-.3.5l-.4.2Z" fill="#fff"/><path d="M442.2 369.7c-.7-5.4 2.1-13.6 9-15.5 6.7-2 9.7-6.2 7.2-10.9-2.4-4.7-1.8-9 4.3-10.9 6.1-2 11.5-5.3 8-12.4-2.6-5.2-3.1-8.5 3.2-18.7 5.2-8.4.9-13.4-5.6-12.4-6.6.9-10.6 9.5-14.7 10.9-4 1.4-5-6.2-10.4-2.8-5.4 3.4-5 12.2-5.2 18.3-.2 6.1-.6 7.5-5.4 6.8-4.9-.8-9.7 0-9.6 13 .1 11.2 5.5 25 5.5 25l13.7 9.6Z" fill="#02897A"/><path d="M433.6 361.4a.6.6 0 0 1-.4-.2.7.7 0 0 1-.2-.5c3.4-33.4 29.5-61.6 36.3-67.3.1-.1.3-.2.4-.1.2 0 .3 0 .4.2a.7.7 0 0 1 0 1c-6.8 5.6-32.5 33.4-35.9 66.4 0 .1 0 .3-.2.4l-.4.1Z" fill="#fff"/><path d="M445.5 325.7h-.3a.7.7 0 0 1-.2-.4v-.5c0-.2.2-.3.3-.4 9.7-4 20.8-2 21.2-2 .2 0 .3.2.4.3l.1.5-.2.4c-.2.1-.3.2-.5.1 0 0-11.1-1.9-20.6 2h-.2ZM436.9 345.8h-.3l-.2-.2a40.8 40.8 0 0 1-7.8-18.6l.2-.2a.6.6 0 0 1 .4 0h.2l.2.2v.3a40 40 0 0 0 7.9 17.7v.4l-.3.3-.3.1Z" fill="#fff"/><path d="M128 167.6v205.2l191-121.3V65l-142 90.2-5-15.5-44 28Z" fill="#22343D"/><path d="m128 372.8 9.8-186.6L328.8 65l-9.9 186.6L128 372.8Z" fill="#E0E0E0"/><path d="m128 372.8 14.7-183.5L333.7 68l-14.8 183.5L128 372.8Z" fill="#22343D"/><path d="M157.4 186.2v205.3l191-121.3V83.6l-142 90.2-5-15.6-44 28Z" fill="#F03E3D"/><path d="m157.4 391.5 9.8-186.6L358 83.6l-9.8 186.6-191 121.3Z" fill="#E0E0E0"/><path d="M157.4 391.5 172 208 363 86.7l-14.7 183.5-191 121.3Z" fill="#F03E3D"/><path d="M318.9 456.8c-34.3-21.8-66-45.4-80.6-73.2l44.1-28L319 456.8Z" fill="#E0E0E0"/><path d="M191.6 208v205.3l191-121.3V105.4l-142 90.2-4.9-15.6-44 28Z" fill="#02897A"/><path opacity=".2" d="M191.6 208v205.3l191-121.3V105.4l-142 90.2-4.9-15.6-44 28Z" fill="#000"/><path d="M246.6 268.7c-.4 0-.5-.6-.5-1v-175a4.3 4.3 0 0 1 1.8-3.4L385.7 1.7l.6-.2c.5 0 .6.6.6 1v175c0 .7-.3 1.4-.6 2-.3.6-.7 1-1.2 1.5l-137.8 87.5-.7.2Z" fill="#fff"/><path d="M386.2 2.1v175.3a4 4 0 0 1-.4 1.7c-.3.5-.6 1-1 1.2L246.9 268h-.2V92.8c0-.6.2-1.2.5-1.7.2-.5.6-.9 1-1.2L386 2.3l.2-.1Zm.1-1.3-1 .3-137.7 87.6a5 5 0 0 0-1.5 1.7c-.3.7-.6 1.4-.6 2.2v175.1c0 1 .5 1.6 1.2 1.6.3 0 .7 0 1-.3l137.7-87.5c.6-.4 1.2-1 1.5-1.7.4-.7.6-1.5.6-2.3V2.5c0-1-.4-1.7-1.2-1.7Z" fill="#02897A"/><path opacity=".7" d="M386.2 2.1v175.3a4 4 0 0 1-.4 1.7c-.3.5-.6 1-1 1.2L246.9 268h-.2V92.8c0-.6.2-1.2.5-1.7.2-.5.6-.9 1-1.2L386 2.3l.2-.1Zm.1-1.3-1 .3-137.7 87.6a5 5 0 0 0-1.5 1.7c-.3.7-.6 1.4-.6 2.2v175.1c0 1 .5 1.6 1.2 1.6.3 0 .7 0 1-.3l137.7-87.5c.6-.4 1.2-1 1.5-1.7.4-.7.6-1.5.6-2.3V2.5c0-1-.4-1.7-1.2-1.7Z" fill="#fff"/><path d="m260.2 99.3 49-31v62.1l-49 31.1V99.3Z" fill="#02897A"/><path opacity=".8" d="m260.2 99.3 49-31v62.1l-49 31.1V99.3Z" fill="#11B5E4"/><path d="M301.8 83.7v18.7l-1.5 1v-5.8c0-3.1-2.4-4.2-5.3-2.4l-20.7 13.2a12 12 0 0 0-5.2 9v5.8l-1.6 1v-18.7l34.3-21.8Z" fill="#fff"/><path d="M292.4 131.3c-2.5 1.6-4.6 0-4.6-3.7v-30l-6.3 3.8v30.2c0 3.6-2 8-4.5 9.5l-4.6 2.9v2l24.5-15.6v-2l-4.5 3Z" fill="#fff"/><path d="M318.9 65.2c0 1.7 1.4 2.2 3.1 1L369.6 36c.9-.6 1.6-1.3 2.2-2.2.5-.9.9-1.9 1-3 0-1.6-1.4-2.1-3.2-1L322.1 60c-.9.5-1.6 1.3-2.2 2.2-.5.9-.9 1.9-1 3ZM318.9 83.7c0 1.7 1.4 2.2 3.1 1.1l47.6-30.2c.9-.5 1.6-1.3 2.1-2.1.6-1 1-2 1-3 0-1.7-1.4-2.2-3-1.1L322 78.6c-.8.6-1.5 1.3-2 2.2-.6.9-1 1.9-1.1 3ZM318.9 102.4c0 1.7 1.4 2.2 3.1 1.1l47.6-30.2c.9-.5 1.6-1.3 2.1-2.1.6-1 1-2 1-3 0-1.7-1.4-2.2-3-1.1L322 97.3c-.8.5-1.5 1.3-2 2.2-.6.8-1 1.9-1.1 3ZM318.9 121c0 1.8 1.4 2.3 3.1 1.2L369.6 92a7.3 7.3 0 0 0 3.1-5c0-1.9-1.4-2.4-3-1.3L322 116c-.8.5-1.5 1.2-2 2.1-.6 1-1 2-1.1 3ZM260.2 177c0 1.8 1.4 2.3 3.1 1.2l106.3-67.6c.9-.6 1.6-1.3 2.2-2.2.5-.9.9-1.9 1-3 0-1.7-1.4-2.1-3.2-1L263.3 172c-.8.5-1.6 1.2-2.1 2.1-.5.9-.9 2-1 3ZM260.2 195.7c0 1.8 1.4 2.3 3.1 1.2l106.3-67.6c.9-.5 1.6-1.3 2.2-2.2.5-.8.9-1.8 1-3 0-1.6-1.4-2.1-3.2-1l-106.3 67.5a7.3 7.3 0 0 0-3.1 5v.1ZM260.2 214.4c0 1.7 1.4 2.2 3.1 1.1L369.6 148c.9-.6 1.6-1.3 2.2-2.2.5-.9.9-1.9 1-3 0-1.7-1.4-2.2-3.2-1l-106.3 67.5c-.8.5-1.6 1.3-2.1 2.1-.5 1-.9 2-1 3Z" fill="#455A64"/><path d="M191.6 413.3 226 248.4l191-121.3L382.5 292l-191 121.3Z" fill="#02897A"/><path d="M238.4 261.3v122.3l44-28V233.4l-44 28Z" fill="#02897A"/><path opacity=".2" d="M238.4 261.3v122.3l44-28V233.4l-44 28Z" fill="#000"/><path d="M319 456a222 222 0 0 1-58.3-76.9c-19.5-46.2-19.5-100-19.5-120.4v-.6l131-83.2c0 20.5 0 74.4 19.6 120.8 18 42.4 52.7 72.4 58.2 77L319 456Z" fill="#fff"/><path d="M371.6 176c0 21.4.4 74.4 19.7 120a224 224 0 0 0 57.6 76.7L319 455.2c-5-4.2-39.8-34-57.7-76.3-19.5-46-19.5-99.9-19.5-120.1v-.3l129.7-82.4Zm1.1-2.2-132.1 84c0 19-.4 74.5 19.5 121.6a222 222 0 0 0 58.8 77.4l132.2-84s-39.2-31-58.7-77.4c-20-47.1-19.6-102.6-19.6-121.6Z" fill="#02897A"/><path opacity=".7" d="M371.6 176c0 21.4.4 74.4 19.7 120a224 224 0 0 0 57.6 76.7L319 455.2c-5-4.2-39.8-34-57.7-76.3-19.5-46-19.5-99.9-19.5-120.1v-.3l129.7-82.4Zm1.1-2.2-132.1 84c0 19-.4 74.5 19.5 121.6a222 222 0 0 0 58.8 77.4l132.2-84s-39.2-31-58.7-77.4c-20-47.1-19.6-102.6-19.6-121.6Z" fill="#fff"/><path d="M357.8 202 316 228.4c-.8.5-1.5 1.2-2 2a7 7 0 0 0-1 3c0 1.7 1.5 2.2 3.2 1L358 208c.9-.5 1.6-1.2 2.1-2a7 7 0 0 0 1-3c-.1-1.7-1.5-2.2-3.3-1ZM358.7 220 317 246.6c-.8.5-1.5 1.2-2 2-.5 1-.8 1.9-.9 3 .1 1.6 1.7 2 3.4.9l41.8-26.5c.8-.5 1.5-1.2 2-2 .5-1 .8-2 .9-3-.2-1.6-1.6-2-3.4-1ZM360.4 237.6l-41.8 26.6c-1.7 1-3 3.3-2.8 4.8.2 1.6 1.8 2 3.5 1l41.8-26.6c1.8-1.1 3-3.3 2.8-4.9-.2-1.5-1.8-2-3.5-.9ZM362.9 254.7l-41.8 26.5c-1.7 1.1-3 3.3-2.6 4.8.3 1.6 1.9 2 3.6.8l41.8-26.5c1.7-1.1 2.9-3.3 2.6-4.8-.3-1.5-1.8-1.9-3.6-.8ZM366.3 271.2l-41.8 26.5c-1.7 1.1-2.9 3.2-2.4 4.7.4 1.5 2 1.8 3.8.7l41.8-26.5c1.7-1.1 2.8-3.2 2.4-4.7-.4-1.5-2-1.8-3.8-.7ZM370.7 287.1l-101.9 64.7c-1.7 1.1-2.7 3.2-2.3 4.6.5 1.4 2.3 1.7 4 .6l101.9-64.7c1.7-1.1 2.7-3.2 2.3-4.6-.5-1.4-2.3-1.7-4-.6ZM376 302.3 274.3 367c-1.7 1.1-2.7 3.1-2.1 4.5.6 1.3 2.4 1.5 4.2.4L378 307.2c1.8-1 2.7-3 2.1-4.4-.5-1.4-2.4-1.6-4.1-.5ZM382.8 316.8l-102 64.7c-1.7 1.1-2.5 3-1.8 4.3.7 1.3 2.6 1.4 4.4.3l101.8-64.7c1.7-1 2.5-3 1.8-4.3-.6-1.3-2.6-1.4-4.2-.3ZM390.6 330.5l-102 64.7c-1.7 1-2.4 3-1.6 4.2.7 1.2 2.8 1.3 4.5.2l102-64.7c1.7-1.1 2.4-3 1.6-4.2-.8-1.3-2.8-1.3-4.5-.2ZM399.5 343.5l-102 64.7c-1.7 1-2.3 3-1.5 4 .9 1.2 3 1.3 4.8.2l101.8-64.8c1.8-1 2.5-2.9 1.6-4-1-1.2-3-1.3-4.7-.1ZM409.3 355.9l-101.9 64.7c-1.7 1-2.4 2.9-1.4 4 1 1 3.2 1 5 0l101.8-64.8c1.7-1 2.3-2.9 1.4-4-1-1-3.2-1-5 0ZM420.1 367.7l-101.9 64.7c-1.7 1.1-2.3 2.9-1.2 4 1.1 1 3.3 1 5-.2L424 371.5c1.7-1.1 2.2-2.8 1.2-3.9-1-1-3.3-1-5 0Z" fill="#455A64"/><path d="m300.9 238.1-48 30.5c.4 19.2 2.4 46.8 9.7 74.7l48-30.5A337.1 337.1 0 0 1 301 238Z" fill="#02897A"/><path opacity=".8" d="m300.9 238.1-48 30.5c.4 19.2 2.4 46.8 9.7 74.7l48-30.5A337.1 337.1 0 0 1 301 238Z" fill="#11B5E4"/><path d="M272.4 264.4a9.5 9.5 0 0 0-2.3-6.7l-17.3 11c.2 5 .4 10.7.8 16.8 2.3.3 4.5-.2 6.5-1.3a24.3 24.3 0 0 0 12.3-19.8Z" fill="#02897A"/><path opacity=".6" d="M272.4 264.4a9.5 9.5 0 0 0-2.3-6.7l-17.3 11c.2 5 .4 10.7.8 16.8 2.3.3 4.5-.2 6.5-1.3a24.3 24.3 0 0 0 12.3-19.8Z" fill="#fff"/><path d="M306.6 294.5a227.7 227.7 0 0 1-13-24.7 1.1 1.1 0 0 0-1.3.1c-.2.2-.4.4-.4.7a159 159 0 0 0-5.2 34.8 49.1 49.1 0 0 1-10.7-13 1 1 0 0 0-.6 0 1 1 0 0 0-.6.3l-.3.5c-5.2 22.3-2.6 44.2-2.6 44.2l38.8-24.6c-1.6-6.2-3-12.3-4-18.3Z" fill="#02897A"/><path opacity=".6" d="M306.6 294.5a227.7 227.7 0 0 1-13-24.7 1.1 1.1 0 0 0-1.3.1c-.2.2-.4.4-.4.7a159 159 0 0 0-5.2 34.8 49.1 49.1 0 0 1-10.7-13 1 1 0 0 0-.6 0 1 1 0 0 0-.6.3l-.3.5c-5.2 22.3-2.6 44.2-2.6 44.2l38.8-24.6c-1.6-6.2-3-12.3-4-18.3Z" fill="#fff"/></svg>